Exact Audio Copy V0.99 prebeta 1 from 25. May 2007

EAC 抓取日志文件从25. 三月 2011, 18:58

黎明 / 20世纪中华歌坛名人百集珍藏版

使用驱动器  ：PIONEER DVD-RW  DVR-115   Adapter: 0  ID: 0

读取模式     : 保护
使用精确流   : 是
废除音频缓冲 : 是
使用 C2 指针 : 否

读取偏移校正                   : 48
读取 Lead-In 和 Lead-Out       : 否
用静音填充抓取中丢失偏移的采样 : 是
去除首尾静音块                 : 否
已用接口                       : Win NT 及 2000 本地 Win32 接口

所用输出格式 : 内部 WAV 函数
样本格式     : 44.100 Hz;16 Bit;立体声
使用压缩偏移 : 48


被抓轨 CD 的 TOC

     音轨 |   开始   |   长度   | 起始扇区 | 结尾扇区 
    --------------------------------------------------
       1  |  0:00.00 |  4:42.22 |       0  |   21171  
       2  |  4:42.22 |  3:51.73 |   21172  |   38569  
       3  |  8:34.20 |  4:50.00 |   38570  |   60319  
       4  | 13:24.20 |  4:26.67 |   60320  |   80336  
       5  | 17:51.12 |  4:22.63 |   80337  |  100049  
       6  | 22:14.00 |  4:26.72 |  100050  |  120071  
       7  | 26:40.72 |  4:12.68 |  120072  |  139039  
       8  | 30:53.65 |  4:16.00 |  139040  |  158239  
       9  | 35:09.65 |  3:48.00 |  158240  |  175339  
      10  | 38:57.65 |  4:31.42 |  175340  |  195706  
      11  | 43:29.32 |  4:39.20 |  195707  |  216651  
      12  | 48:08.52 |  4:26.53 |  216652  |  236654  
      13  | 52:35.30 |  3:47.70 |  236655  |  253749  
      14  | 56:23.25 |  4:53.70 |  253750  |  275794  


范围状态及错误

已选择范围

     文件名 E:\20世纪中华歌坛名人百集珍藏版-黎明[lwg188原创]\黎明 - 20世纪中华歌坛名人百集珍藏版.wav

     峰值电平 100.0 %
     范围质量 99.9 %
     复制 CRC 31FD18B3
     复制成功

没有错误发生

状态报告结尾
